{"title":"The Adventures of Pluto Nash (2002)Mp-4[DaScubaDude]","uid":12352018,"size":944357259,"categoryP":"video","categoryS":"movies","magnet":"?xt=urn:btih:542286e0ea836c7b5e30b316d21723e0a13ffa85&amp;dn=The+Adventures+of+Pluto+Nash+%282002%29Mp-4%5BDaScubaDude%5D&amp;tr=udp%3A%2F%2Ftracker.openbittorrent.com%3A80&amp;tr=udp%3A%2F%2Fopen.demonii.com%3A1337&amp;tr=udp%3A%2F%2Ftracker.coppersurfer.tk%3A6969&amp;tr=udp%3A%2F%2Fexodus.desync.com%3A6969","seeders":1,"leechers":0,"uploader":"dascuba","files":1,"time":1441438514,"description":"The Adventures of Pluto Nash (2002)\nPG-13  |  95 min  |  Comedy, Action, Sci-Fi  |  16 August 2002 (USA)\n3.7 Your rating:   -/10   Ratings: 3.7/10 from 19,324 users   Metascore: 12/100 \nReviews: 162 user | 64 critic | 12 from Metacritic.com\nIn the future, a man struggles to keep his lunar nightclub out of the hands of the mafia.\n\nDirector: Ron Underwood\nWriter: Neil Cuthbert\nStars: Eddie Murphy, Jay Mohr, Randy Quaid \n\nGeneral\nComplete name           : C:Pluto NashTHE_ADVENTURES_OF_PLUTO_NASH_Title1.mp4\nFormat                                   : MPEG-4\nFormat profile                           : Base Media\nCodec ID                                 : isom\nFile size                                : 901 MiB\nDuration                                 : 1h 34mn\nOverall bit rate                         : 1 329 Kbps\nMovie name                               : THE_ADVENTURES_OF_PLUTO_NASH\nGenre                                    : Action\nWriting application                      : Lavf54.6.100\n\nVideo\nID                                       : 1\nFormat                                   : AVC\nFormat/Info                              : Advanced Video Codec\nFormat profile                           : Baseline@L3\nFormat settings, CABAC                   : No\nFormat settings, ReFrames                : 6 frames\nCodec ID                                 : avc1\nCodec ID/Info                            : Advanced Video Coding\nDuration                                 : 1h 34mn\nBit rate                                 : 1 195 Kbps\nWidth                                    : 720 pixels\nHeight                                   : 404 pixels\nDisplay aspect ratio                     : 16:9\nFrame rate mode                          : Constant\nFrame rate                               : 29.970 fps\nColor space                              : YUV\nChroma subsampling                       : 4:2:0\nBit depth                                : 8 bits\nScan type                                : Progressive\nBits/(Pixel*Frame)                       : 0.137\nStream size                              : 809 MiB (90%)\n\nAudio\nID                                       : 2\nFormat                                   : AAC\nFormat/Info                              : Advanced Audio Codec\nFormat profile                           : LC\nCodec ID                                 : 40\nDuration                                 : 1h 34mn\nBit rate mode                            : Constant\nBit rate                                 : 128 Kbps\nChannel(s)                               : 2 channels\nChannel positions                        : Front: L R\nSampling rate                            : 44.1 KHz\nCompression mode                         : Lossy\nStream size                              : 86.7 MiB (10%)","torrent":{"xt":"urn:btih:542286e0ea836c7b5e30b316d21723e0a13ffa85","amp;dn":"The+Adventures+of+Pluto+Nash+%282002%29Mp-4%5BDaScubaDude%5D","amp;tr":["udp%3A%2F%2Ftracker.openbittorrent.com%3A80","udp%3A%2F%2Fopen.demonii.com%3A1337","udp%3A%2F%2Ftracker.coppersurfer.tk%3A6969","udp%3A%2F%2Fexodus.desync.com%3A6969"],"infoHash":"542286e0ea836c7b5e30b316d21723e0a13ffa85","infoHashBuffer":{"type":"Buffer","data":[84,34,134,224,234,131,108,123,94,48,179,22,210,23,35,224,161,63,250,133]},"announce":[],"urlList":[]}}